<svg xmlns="http://www.w3.org/2000/svg" viewBox="0 0 206.431 20.051">
  <g id="Group_341" data-name="Group 341" opacity="0.5">
    <path id="Path_1235" data-name="Path 1235" d="M1028.241,1034.2h6.732c4.764.041,8.658,4.246,8.658,9.383,0,5.158-3.894,9.363-8.658,9.4h-6.732V1034.2Zm2.942,2.278v14.292h3.024c4.35-.125,6.5-3.5,6.5-7.1a6.872,6.872,0,0,0-5.739-7.1l-3.79-.083Zm23.779-2.713a10.146,10.146,0,0,1,10.377,9.839c0,5.406-4.661,9.818-10.377,9.818-5.7,0-10.356-4.412-10.356-9.818a10.141,10.141,0,0,1,10.356-9.839Zm.041,2.382a7.426,7.426,0,1,1-7.539,7.436,7.487,7.487,0,0,1,7.539-7.436Zm11.144-1.907h2.776v16.571h5.3v2.155h-8.078v-18.726Zm17.089-.579a10.676,10.676,0,0,1,5.821,1.719v3.419a7.508,7.508,0,1,0,0,9.549v3.459a10.518,10.518,0,0,1-5.821,1.739,9.951,9.951,0,1,1,0-19.885Zm9.612,17.088h6.711v2.217h-9.632v-18.726h9.632v2.113h-6.711v5.572h6.711v2.278h-6.711v6.545Zm17.275,1.036a3.8,3.8,0,0,1-1.036.7,3.714,3.714,0,0,1-1.221.415,1.659,1.659,0,0,1-.311.041,1.548,1.548,0,0,1-.31.021,4.191,4.191,0,0,1-.871-.1,2.537,2.537,0,0,1-.786-.394,2.265,2.265,0,0,1-.643-.807,2.456,2.456,0,0,1-.331-.994v-.125a.4.4,0,0,1-.021-.144.185.185,0,0,1,.021-.1v-.166c.02-.021.02-.021.02-.042v-.145a2.553,2.553,0,0,1,.808-1.408,7.252,7.252,0,0,1,1.284-.974,9.653,9.653,0,0,1-.683-.911,1.713,1.713,0,0,1-.311-.994v-.166a.3.3,0,0,0,.021-.145c.021,0,.021-.021.021-.042v-.021a.152.152,0,0,0,.021-.083c0-.021.02-.041.02-.062a1.652,1.652,0,0,1,.705-1.057,2.345,2.345,0,0,1,1.16-.393h.269a2.534,2.534,0,0,1,1.388.559,1.6,1.6,0,0,1,.621,1.367,1.846,1.846,0,0,1-.518,1.346,7.292,7.292,0,0,1-1.14.952l1.988,2.4c.187-.228.394-.456.58-.684.165-.227.352-.476.5-.724l.683.7a3.538,3.538,0,0,1-.435.642c-.145.185-.311.393-.476.579l-.125.125-.123.124,1.45,1.761h-1.284l-.932-1.056Zm-2.506.269a2.278,2.278,0,0,0,.973-.332,7.738,7.738,0,0,0,.829-.621c.021,0,.041-.021.062-.041.021,0,.042-.021.062-.042l-2.258-2.692c-.021,0-.021.021-.041.041-.021,0-.042.021-.063.042-.041.021-.062.041-.1.062-.02,0-.041.021-.062.042-.187.123-.352.248-.518.373a2.24,2.24,0,0,0-.435.456c-.042.083-.1.166-.146.269a1.25,1.25,0,0,0-.1.289l-.062.249a.993.993,0,0,0-.021.248,1.681,1.681,0,0,0,.5,1.181,1.625,1.625,0,0,0,1.221.517s.021,0,.021-.02h.083c.021,0,.021-.021.042-.021Zm-.829-6.566v.062c0,.021-.021.042-.021.063v.041a1.091,1.091,0,0,0,.187.621,2.853,2.853,0,0,0,.435.559c.042.063.1.125.146.187s.1.1.145.165c.041-.02.062-.041.1-.062a.156.156,0,0,1,.1-.041,3.964,3.964,0,0,0,.662-.5,1.121,1.121,0,0,0,.373-.7v-.125c0-.021.021-.042.021-.062v-.042a.867.867,0,0,0-.311-.7,1.147,1.147,0,0,0-.683-.311h-.187a1.1,1.1,0,0,0-.6.207.888.888,0,0,0-.373.642Zm20.672-11.91a10.565,10.565,0,0,1,8.865,4.744l-2.423,1.242a7.574,7.574,0,1,0-6.422,11.579c3.522,0,6.3-1.761,6.5-5.428h-6.049V1043.5h5.9c0-.042,3,0,3.19,0v.1c0,5.861-3.19,10.026-9.57,10.026-6.4,0-10.46-4.516-10.46-10.026a10.279,10.279,0,0,1,10.46-10.025Zm8,19.388,7.747-18.787h1.844l7.809,18.787h-3.045l-2.154-5.3h-7.1l-2.113,5.3Zm6.172-7.685,2.507-6.669,2.547,6.669Zm38.445,7.685,7.747-18.787h1.844l7.809,18.787h-3.045l-2.154-5.3h-7.1l-2.113,5.3Zm6.194-7.685,2.486-6.669,2.547,6.669Zm31.008,7.685,7.747-18.787h1.844l7.809,18.787h-3.045l-2.154-5.3h-7.1l-2.113,5.3Zm6.172-7.685,2.507-6.669,2.548,6.669Zm-63.88-8.907c1.844.208,2.527.994,2.527,2.838a2.641,2.641,0,0,1-2.858,2.817h-2.445v-5.676h2.776v.021Zm.145,7.933h.146c1.367,0,3.811.31,3.811,3.355,0,2.444-2.134,3.148-4.163,3.128l.5.02h-3.211v-6.5h2.921Zm-3.6,8.658h4.847c3.314,0,5.7-2.175,5.7-5.3a5.167,5.167,0,0,0-3.6-4.971,4.378,4.378,0,0,0,1.885-3.874c0-2.838-1.906-4.578-4.723-4.64-1.532-.021-3.086,0-4.64,0h-1.7v18.787Zm17.689-16.592c1.843.208,2.527.994,2.548,2.838a2.642,2.642,0,0,1-2.859,2.817h-2.444v-5.676h2.755v.021Zm.166,7.933h.145c1.346,0,3.811.31,3.811,3.355,0,2.444-2.154,3.148-4.163,3.128l.477.02h-3.19v-6.5h2.921Zm-3.6,8.658h4.846c3.293,0,5.7-2.175,5.7-5.3a5.185,5.185,0,0,0-3.626-4.971,4.331,4.331,0,0,0,1.886-3.874,4.43,4.43,0,0,0-4.7-4.64c-1.552-.021-3.106,0-4.66,0h-1.678v18.787Zm28.356-18.726h1.781l13.154,13.9v-13.9h2.547v18.726h-1.947l-12.884-13.754v13.754h-2.651v-18.726Z" transform="translate(-1028.241 -1033.575)" fill="#1a1818" fill-rule="evenodd"/>
  </g>
</svg>
