<svg xmlns="http://www.w3.org/2000/svg" viewBox="0 0 158.553 59.47">
  <g id="Oakley_logo" opacity="0.5">
    <g id="g4" transform="translate(25.636 0)">
      <path id="path6" d="M54.191.033a136.856,136.856,0,0,1,24.2,1.752c8.526,1.45,16.478,3.407,22.881,7.077.473.271.834.448,1.449.842,2.5,1.6,5.6,4.171,6.2,7.616a8.017,8.017,0,0,1-2.224,6.672,19.39,19.39,0,0,1-5.156,4.044c-7.787,4.437-18.053,6.8-28.711,8.02a138.679,138.679,0,0,1-16.242.977,161.861,161.861,0,0,1-16.209-.741c-10.268-1.021-21.022-3.173-29.115-7.279a25.823,25.823,0,0,1-5.594-3.639,9.939,9.939,0,0,1-3.572-5.627c-.726-4.091,2.157-7.066,4.549-8.9a36.05,36.05,0,0,1,9.031-4.785A100.831,100.831,0,0,1,38.117,1.01,126.219,126.219,0,0,1,54.191.033Zm.236,3.673A57.749,57.749,0,0,0,34.612,7.177a25.344,25.344,0,0,0-7.751,4.28c-1.98,1.661-4.321,4.325-3.774,7.986.472,3.158,2.983,5.411,5.122,6.908a30.992,30.992,0,0,0,8.155,3.875A64.95,64.95,0,0,0,56.92,33.056a58.29,58.29,0,0,0,19.848-3.5,27.445,27.445,0,0,0,7.717-4.313c2.033-1.713,4.192-4.479,3.64-7.919C87.63,14.239,85.28,11.986,83,10.412a31.471,31.471,0,0,0-8.155-3.875,56.408,56.408,0,0,0-14.793-2.7c-1.568-.078-3.63-.227-5.56-.135-.022,0-.045,0-.067,0Z" transform="translate(-1.979 -0.033)" fill-rule="evenodd"/>
    </g>
    <g id="g16" transform="translate(0 43.94)">
      <path id="path18" d="M7.589.105a41.522,41.522,0,0,1,8.222.472c.83.169,1.762.49,2.056,1.111a8.809,8.809,0,0,1,.168,2.966v7.784a5.374,5.374,0,0,1-.067,1.483c-.405,1.1-2.611,1.366-3.741,1.483a52.455,52.455,0,0,1-9.772,0c-1.22-.115-3.4-.377-3.875-1.416a10.177,10.177,0,0,1-.135-3V4.79c0-1.094-.164-2.538.27-3.2S2.6.543,3.781.375A24.927,24.927,0,0,1,7.589.105ZM7.32,2.026a4.871,4.871,0,0,0-.068,1.382v7.346a9.534,9.534,0,0,0,.1,2.864c.282.5,1.062.5,1.854.506.626.008,1.581.045,1.887-.472a8.825,8.825,0,0,0,.1-2.8V4.992a14.492,14.492,0,0,0-.034-2.9c-.245-.619-1.865-.578-2.426-.539-.4.028-1.206.046-1.415.472Z" transform="translate(-0.407 -0.103)" fill-rule="evenodd"/>
    </g>
    <g id="g20" transform="translate(28.041 44.111)">
      <path id="path22" d="M5.459,0h8.593c1.973,5.014,3.953,10.02,5.9,15.063H12.2c-.426-1.236-.815-2.509-1.247-3.741-1.452-.054-3.132-.058-4.583,0-.415,1.192-.732,2.481-1.078,3.741H0c1.312-3.746,2.7-7.5,4.044-11.255C4.495,2.548,5.014,1.115,5.459,0Zm1.247,9.57c1.18-.055,2.594-.055,3.774,0-.672-1.979-1.318-3.983-2.056-5.9C7.884,5.672,7.25,7.578,6.706,9.571Z" transform="translate(0 -0.001)" fill-rule="evenodd"/>
    </g>
    <g id="g24" transform="translate(59.38 44.062)">
      <path id="path26" d="M7.38,6.312c1.6-1.657,3.28-3.521,4.954-5.358.2-.223.563-.659.741-.708a7.611,7.611,0,0,1,1.584,0c1.539,0,3.17.028,4.684-.034.065.181-.184.276-.27.371-1.747,1.924-3.625,3.966-5.425,5.864,1.784,2.946,3.691,5.947,5.392,8.863H11.255C9.88,13.2,8.716,10.885,7.38,8.739V15.31H.034C.011,10.445.079,5.2,0,.28,2.337.2,5,.269,7.279.247c.185-.019.1.407.1.64Z" transform="translate(0 -0.198)" fill-rule="evenodd"/>
    </g>
    <g id="g28" transform="translate(89.911 44.084)">
      <path id="path30" d="M.177.2H7.49c0,4.325,0,8.829,0,13.041,2.426.022,4.942-.045,7.312.034v1.988H.11c.078-4.619.012-10.087.034-15C.076.236.159.118.177.2Z" transform="translate(-0.11 -0.171)" fill-rule="evenodd"/>
    </g>
    <g id="g32" transform="translate(115.518 44.09)">
      <path id="path34" d="M.073.127H14.462V2.048H7.453c-.079,1.472-.011,3.089-.034,4.617,1.8.022,3.684-.045,5.425.034.013.65-.024,1.272.034,1.752H7.453v4.785c2.258.078,4.661.011,6.976.034V15.19H.04v-15C.025.13.062.073.073.127Z" transform="translate(-0.036 -0.106)" fill-rule="evenodd"/>
    </g>
    <g id="g36" transform="translate(138.503 44.077)">
      <path id="path38" d="M20.016.017c.029-.006.032.013.034.034-1.986,3.147-4.22,6.339-6.3,9.5.022,1.81-.044,3.885.034,5.527-2.4.079-4.954.011-7.414.034,0-1.318,0-2.71,0-4.145a7.466,7.466,0,0,0,0-1.382A5.15,5.15,0,0,0,5.56,8.375C3.669,5.6,1.787,2.779,0,.051H7.784c1.148,1.806,2.19,3.718,3.269,5.594,1.13-1.835,2.179-3.752,3.3-5.594C16.231.029,18.2.1,20.016.017Z" transform="translate(0 -0.016)" fill-rule="evenodd"/>
    </g>
  </g>
</svg>
