<svg xmlns="http://www.w3.org/2000/svg" viewBox="0 0 123.196 72">
  <g id="persol" opacity="0.5">
    <path id="Path_1221" data-name="Path 1221" d="M80.583,86.9c-2.574-2.231-2.659-4.118-2.659-4.118,0-2.745,2.831-2.059,3.173-1.63s2.916,3.346,2.916,3.346L86.5,79.519s-1.028-2.231-5.918-2.231a8.518,8.518,0,0,0-8.663,8.321c0,4.461,4.631,9.264,5.576,10.036s3.344,2.917,3.344,5.062-2.317,2.4-2.317,2.4c-2.745,0-6.09-5.832-6.09-5.832s-2.145,5.062-4.633,5.062a2.814,2.814,0,0,1-2.745-2.574c0-4.2,3.174-9.351,3.174-9.351l-.515-.772a9.989,9.989,0,0,1-3.345.686c-4.547,0-6.177-5.061-6.177-5.061l-.686.086c-.086.6-2.14,9.437-2.14,9.437-.533,2.3-4.605,19.3-8.6,19.3-4.289,0-3.689-4.547-3.689-4.547l8.921-6.692s1.029-8.577-4.547-8.577c-5.318,0-12.353,5.661-12.353,16.3,0,0-.086,8.492,7.634,8.492C50.3,119.066,54.658,108,57.655,95.6l3.8,1.336c-4.632,7.55-4.2,14.584.858,14.584s9.35-6.948,9.35-6.948a15.075,15.075,0,0,0,6.176,1.458c3.346,0,8.408-2.574,8.408-7.893S83.157,89.127,80.583,86.9ZM33.124,77.46C20,77.46,8.414,89.556,8.5,99.678c.086,9.693,9.694,9.779,9.694,9.779s2.059-.171,1.115-1.458-3.689-5.92-3.689-10.381,4.256-17.9,15.58-17.9c0,0,9.983-.2,6.638,13.528,0,0,8.493-.772,8.493-8.15S33.124,77.46,33.124,77.46Z" transform="translate(-8.503 -55.215)" fill-rule="evenodd"/>
    <path id="Path_1222" data-name="Path 1222" d="M34.876,86.467s-11.066,3.26-11.409,19.044a82.183,82.183,0,0,0,.944,15.44s0,5.747-3.346,5.747-5.147-4.889-7.205-9.265l-4.375,5.918s2.745,6.263,9.436,6.263,14.754-6,14.754-24.963c0,0-.515-5.661-.6-8.921a34.534,34.534,0,0,1,1.8-9.263Z" transform="translate(-8.797 -57.959)" fill-rule="evenodd"/>
    <path id="Path_1223" data-name="Path 1223" d="M56.8,115.231l3.517-2.317-.258-3.946s.029-3.025-1.715-2.574c-2.315.6-2.144,7.205-1.544,8.837Z" transform="translate(-22.83 -63.554)" fill="#fff" fill-rule="evenodd"/>
    <path id="Path_1224" data-name="Path 1224" d="M129.244,97.285c5.747,0,11.837-8.15,11.837-16.728s-7.033-9.265-7.978-9.265-10.637,2.745-10.637,16.556C122.466,87.848,122.209,97.285,129.244,97.285Z" transform="translate(-42.58 -52.771)" fill-rule="evenodd"/>
    <path id="Path_1225" data-name="Path 1225" d="M130.416,81.046c-.231,3.424,2.231,12.44,4.8,12.44s1.076-10.411-.085-13.211C133.674,76.757,130.844,74.7,130.416,81.046Z" transform="translate(-44.953 -54.465)" fill="#fff" fill-rule="evenodd"/>
    <path id="Path_1226" data-name="Path 1226" d="M131.454,44.247c-6,0-9.351,9.464-9.351,16.056V80.584a3.019,3.019,0,0,0,3,2.619c2.659,0,7.121-2.451,9.522-3.887a14.614,14.614,0,0,1,6-2.2,1.051,1.051,0,0,1,1.2,1.183c0,.422-.515,1.014-3.346,2.028s-87.412,34.9-88.956,35.915H66.257s42.892-20.534,53.186-25.183,19.043-8.788,21.788-10.14,2.66-2.7,2.66-3.719-.944-1.775-3.089-1.775a14.784,14.784,0,0,0-7.55,2.366c-2.488,1.605-4.718-.253-4.718-3.38s.086-6.507,1.973-8.788,6.52-5.662,6.52-13.69-5.575-7.69-5.575-7.69Z" transform="translate(-20.771 -44.245)" fill-rule="evenodd"/>
    <path id="Path_1227" data-name="Path 1227" d="M164.542,47.674c-1.458,0-2.058,3-2.058,5.834V63.2s.3,2.252,1.543-.172a17.6,17.6,0,0,0,2.4-9.35c0-4.8-.686-6-1.888-6Z" transform="translate(-54.547 -45.27)" fill="#fff" fill-rule="evenodd"/>
    <path id="Path_1228" data-name="Path 1228" d="M177.5,47.579a2.365,2.365,0,1,1,2.371,2.34A2.331,2.331,0,0,1,177.5,47.579Z" transform="translate(-59.038 -44.546)" fill-rule="evenodd"/>
    <path id="Path_1229" data-name="Path 1229" d="M180.076,49.7a1.946,1.946,0,1,0-1.9-1.951A1.884,1.884,0,0,0,180.076,49.7Z" transform="translate(-59.238 -44.711)" fill="#fff" fill-rule="evenodd"/>
    <path id="Path_1230" data-name="Path 1230" d="M180.009,49.352H179.6V46.66h1.024c.636,0,.951.235.951.766a.7.7,0,0,1-.7.741l.767,1.185h-.457l-.711-1.167h-.47Z" transform="translate(-59.665 -44.967)" fill-rule="evenodd"/>
    <path id="Path_1231" data-name="Path 1231" d="M180.671,47.986c.345,0,.655-.025.655-.438,0-.334-.3-.4-.587-.4h-.556v.833Z" transform="translate(-59.839 -45.115)" fill="#fff" fill-rule="evenodd"/>
  </g>
</svg>
