<svg xmlns="http://www.w3.org/2000/svg" viewBox="0 0 121.373 60.007">
  <g id="ray-ban" opacity="0.5">
    <path id="Path_1217" data-name="Path 1217" d="M185.082,69.908A2.33,2.33,0,1,0,187.4,72.23,2.328,2.328,0,0,0,185.082,69.908Zm0,4.376a2.044,2.044,0,1,1,1.447-.6A2.046,2.046,0,0,1,185.082,74.284Z" transform="translate(-66.031 -57.072)" fill-rule="evenodd"/>
    <path id="Path_1218" data-name="Path 1218" d="M123.082,71.319a.637.637,0,0,0-.293-.561,1.206,1.206,0,0,0-.635-.128h-1.133v2.6h.317v-1.2h.585l.743,1.2h.379l-.787-1.2c.464-.012.824-.2.824-.713Zm-1.256.463h-.488v-.92h.743c.323,0,.677.049.677.451C122.759,71.843,122.191,71.782,121.826,71.782ZM43.94,110.326l-15.171-7.408a1.067,1.067,0,0,1-.5-.9l.04-4.09a.963.963,0,0,1,.441-.855A36.45,36.45,0,0,0,40.585,85.684c6.911-10.086,0-18.56-10.8-16.253A77.034,77.034,0,0,0,6.19,79.5c-3.775,2.517-3.251,5.557-3.355,8.284.21,1.153.629,1.048,1.573-.105,7.025-6.5,17.721-11.43,19.714-12.269S30.833,71.738,36.391,73c5.339,1.209,4.041,8.468,2.411,11.535-1.783,3.355-6.868,8.231-9.175,9.437-.876.458-1.205,0-1.205-.734l.367-15.782c0-1.048-.472-1.521-1.521-1.153l-1.678.839c-1.153.682-1.1.944-1.206,1.783L24.13,97.114a.883.883,0,0,1-.407.8l-5.473,3.078c-1.258.629-.944,1.573,0,1.888l4.4,2.1c1.049.419,1.364.734,1.364,1.782l-.158,8.809c3.933-.786,4.194-2.674,4.3-3.933v-2.674c.1-.629.472-.839,1-.734l12.793,6.187c1.153.525,1.783.314,2.622-1.153s.943-2.2-.63-2.935ZM66.3,88.1c-1.778,1.026-2.6,2.947-1.9,4.16s2.814,1.417,4.593.389,2.548-2.9,1.848-4.108S68.076,87.075,66.3,88.1Z" transform="translate(-2.835 -56.77)" fill-rule="evenodd"/>
    <path id="Path_1219" data-name="Path 1219" d="M77.254,82.76a24.752,24.752,0,0,0-1.94,3.487c-.524,1.1-1.625,3.591-2.726,3.591-1.164,0-1.311-2.883-1.311-3.932s-.629-1.206-.944-1.153a1.89,1.89,0,0,0-1.468,1.468c-.262,1.1-1.678,5.873-3.251,5.873-1,0-1.73-2.884-1.782-3.775s-.472-1.625-1.364-1.625a2.6,2.6,0,0,0-1.73.682c-.315.367-.367.943-2.045.577-1.521-.053-2.989.734-4.771,3.723-1.073,1.8-1.945,5.152-.315,6.5,1.521,1.258,4.194-1,4.981-1.94a26.615,26.615,0,0,0,1.783-2.149c.314-.525.629-.472.786.052s1.048,2.569,2.2,2.517,2.622-.944,4.352-3.985c.315-.629.786-.577.891-.053s.786,2.255,1.94,2.255c1.1,0,2.326-1.749,2.936-2.779.419-.708,1.048-.367,1.048.315s-.315,16.778-.315,16.778c0,.734.288.943.812.943h2.281a.851.851,0,0,0,.786-.943L78.564,83.1c0-.63-.707-1.075-1.31-.341ZM59.428,93.037c-.472.787-1.73,2.884-2.831,2.517-.577-.315.192-2.412.577-3.146.577-1.1,2.267-2.855,3.041-2.412.734.419-.315,2.254-.786,3.041Zm79.887-16.082a1.041,1.041,0,0,1-1.31.157c-1.311-.524-1.416-2.988-2.1-5.243-.613-2.025-2.088-1.9-2.622-.97l-1.6,2.569c-.289.524-.917,1.73-1.547,1.73-.734,0-.405-1.049-.366-2.1.025-.708-.42-1.6-1.154-1.6-.839,0-1.73,1.284-2.411,2.753-.476,1.027-1.7,4.955-3.252,4.955-1,0-1.1-2.884-1.153-3.775s-.367-1.992-1.258-1.992a1.67,1.67,0,0,0-1.311.681c-.314.367-.366.681-1.467.524-1.521-.053-4.037,1.364-5.82,4.352-1.073,1.8-2.365,5.572-.734,6.921,1.521,1.258,4.246-1.678,5.033-2.622a27,27,0,0,0,1.783-2.149c.314-.525.629-.472.786.053s1.049,2.569,2.2,2.517,2.1-.315,3.828-3.356c.314-.629.891-.707,1-.183s.21,1.914,1.311,1.914c1.887,0,4.026-4.593,4.561-5.663.472-.944,1.231-.682,1.494.026.375,1.013.707,4.273,2.752,4.273s3.434-2.176,3.853-2.858c.473-.681.227-1.551-.5-.917ZM117.085,80.1c-.472.786-1.521,2.517-2.622,2.149-.577-.315.139-1.835.525-2.569.577-1.1,2.267-2.88,3.041-2.438.733.42-.473,2.071-.945,2.858Zm-10.129-2.748a53.432,53.432,0,0,1-5.715-4.718,1.35,1.35,0,0,1,.262-2.149c3.145-2.1,8.074-5.348,10.014-10.381,1.869-4.851-1.049-9.07-3.146-9.752-2.874-.934-8.966.944-12.007,6.606-1.969,3.667-2.882,4.876-3.145,14.838-.051,1.887-.105,4.037-.105,6.4s-.262,8.756-.525,9.961c-1,2.831,1.993,1.153,3.355.053a4.053,4.053,0,0,0,1.258-3.46c0-.892.053-16.621.525-20.134.294-2.185.63-6.239,2.936-9.752s4.666-2.1,5.3-1.521,1.521,2.045,1.048,5.034c-.732,4.638-6.082,9.7-7.446,11.272a2.953,2.953,0,0,0-.261,4.037,38.373,38.373,0,0,0,3.355,3.723,3.488,3.488,0,0,1,1.049,3.618c-.735,2.831-8.39,10.486-8.39,10.486-1.626,1.73.052,4.561.629,5.5s1.311.63,1.783-.157c1.888-3.512,10.014-12.007,10.014-12.007,2.362-2.989,1.365-5.873-.784-7.5Z" transform="translate(-20.352 -50.123)" fill-rule="evenodd"/>
  </g>
</svg>
