<svg xmlns="http://www.w3.org/2000/svg" viewBox="0 0 195.814 25.207">
  <g id="tiffany-co" opacity="0.5">
    <path id="Path_1233" data-name="Path 1233" d="M52.726,90.727l.8,4.687H53.08c-.619-2.919-3.272-4.157-6.1-4.157a4.909,4.909,0,0,0-1.5.177v8.049h1.062c2.3,0,3.714-.886,3.714-2.742h.442v6.545h-.354c-.177-1.415-.708-3.183-3.714-3.183h-1.15v7.429c0,1.238.53,1.945,2.388,1.945v.443H39.99v-.443c1.769,0,2.389-.707,2.389-1.945V93.115c0-1.15-.707-1.946-2.477-1.946v-.441H52.726Zm15.92,0,.8,4.687H69c-.619-2.919-3.273-4.157-6.1-4.157a4.9,4.9,0,0,0-1.5.177v8.049h1.062c2.3,0,3.715-.886,3.715-2.742h.441v6.545h-.353c-.177-1.415-.707-3.183-3.715-3.183h-1.15v7.429c0,1.238.53,1.945,2.388,1.945v.443H55.909v-.443c1.768,0,2.388-.707,2.388-1.945V93.115c0-1.15-.708-1.946-2.477-1.946v-.441H68.646Zm-32.547,0v.441a1.866,1.866,0,0,0-2.123,1.946V107.53a1.863,1.863,0,0,0,2.123,1.945v.443H28.67v-.443c1.327-.087,2.123-.618,2.123-1.945V93.115a1.866,1.866,0,0,0-2.123-1.946v-.441H36.1Zm-9.641-5.219.8,5.749H26.9c-1.15-3.007-3.184-5.042-7.164-5.042v20.342c0,2.211,1.238,2.918,2.565,2.918v.443H13.457v-.443a2.635,2.635,0,0,0,2.742-2.918V86.216c-4.069,0-5.925,1.857-7.34,5.042H8.5l.619-5.749H26.458Zm108.786,18.131a5.017,5.017,0,0,0,5.219,5.219,5.236,5.236,0,0,0,3.98-1.945l-6.191-7.961A4.764,4.764,0,0,0,135.244,103.639Zm8.491-11.852c-.007-2.458-1.071-3.715-3.183-3.715a3.048,3.048,0,0,0-3.363,3.272c0,2.3,3.1,5.484,3.1,5.484,2.477-1.415,3.449-2.83,3.449-5.042Zm-3.007,5.572,5.308,6.635a6.8,6.8,0,0,0,.618-2.124c0-1.238-.618-1.68-1.68-1.856v-.354h5.749s.087.354,0,.354a5.54,5.54,0,0,0-2.655,1.149,12.02,12.02,0,0,0-1.68,3.273l2.477,3.007a5.658,5.658,0,0,0,3.98,2.032v.443h-6.191v-.443l-1.769-2.121a9.438,9.438,0,0,1-6.278,2.831c-3.8,0-6.281-2.124-6.281-5.042,0-3.183,3.007-5.219,5.395-6.811,0,0-2.566-2.918-2.566-5.571a5.257,5.257,0,0,1,5.484-5.307,4.779,4.779,0,0,1,5.042,4.511c0,2.828-3.271,4.067-4.951,5.393Zm38.561-12.294.265,7.695h-.441c-.8-4.334-3.626-6.81-7.253-6.81-4.333,0-7.34,5.042-7.34,11.763,0,8.4,3.36,11.852,7.961,11.852,4.774,0,6.633-4.422,7.075-7.605H180v3.36a9.153,9.153,0,0,1-8.224,4.687c-6.37,0-11.322-5.219-11.322-12.2,0-6.368,5.573-12.206,11.322-12.206,3.36,0,4.244,1.416,5.571,1.416.973,0,1.415-.619,1.5-1.946h.441Zm23.261,21.315a1.775,1.775,0,0,1,1.769,1.769,1.772,1.772,0,0,1-3.539,0A1.775,1.775,0,0,1,202.549,106.381Zm-17.422-6.368c0,5.925,2.3,9.551,5.925,9.551,3.715,0,6.012-3.36,6.012-9.551,0-5.661-2.032-8.845-5.925-8.933C187.16,90.992,185.127,94.8,185.127,100.014Zm5.837-9.376a9.855,9.855,0,0,1,10.082,9.728,9.6,9.6,0,0,1-9.906,9.553c-5.484,0-10.082-4.335-10.082-9.553A9.971,9.971,0,0,1,190.964,90.638Zm-114.8,4.157,3.272,7.872H72.979Zm10.613,14.682a2.27,2.27,0,0,1-1.592-1.06c-.265-.443-7.695-18.662-7.695-18.662l-6.81,16.627c-.8,2.121-1.857,3.094-3.36,3.094v.443H72.89v-.443c-1.149-.087-1.857-.618-1.857-1.415A41.987,41.987,0,0,1,72.8,103.2h6.722a36.61,36.61,0,0,1,1.945,4.863c.089.708-.973,1.415-2.034,1.415v.443h7.34v-.442h0Zm3.1-2.919a2.894,2.894,0,0,1-2.388,2.918v.443h5.572v-.443a2.859,2.859,0,0,1-2.477-2.918V94.089l13,16.185V94.708c0-2.212,1.238-3.539,2.653-3.539v-.441h-6.28v.353c1.769.531,3.007,1.592,3.007,3.627v9.553L92.171,90.728h-5.13v.353a2.83,2.83,0,0,1,2.83,2.388v13.088h0Zm17.069-15.389c.788,0,.976.006,1.592,1.15,0,0,5.925,9.465,5.925,9.552v5.66c0,1.238-1.062,1.945-2.653,2.034v.354h8.226v-.354c-1.5-.089-2.477-.8-2.477-2.034V100.9s3.8-6.81,4.156-7.429a4.936,4.936,0,0,1,3.626-2.477v-.265h-6.722l.089.265a2.085,2.085,0,0,1,1.856,3.272l-3.449,6.368L112.867,93.2c-.71-1.15.176-2.212,1.767-2.212v-.265h-7.695v.442h0Z" transform="translate(-8.504 -85.066)" fill-rule="evenodd"/>
  </g>
</svg>
